<svg width="580" height="563" viewBox="0 0 580 563" fill="none" xmlns="http://www.w3.org/2000/svg">
<g clip-path="url(#clip0_2002_12)">
<path d="M155.719 399.019L209.266 386.419L162.931 189.496L109.384 202.096C54.8972 214.916 32.6302 249.991 45.0597 302.816L53.216 337.48C65.6106 390.157 101.232 411.839 155.719 399.019ZM234.337 380.606C298.59 372.453 380.583 372.138 444.42 389.657C443.929 387.571 443.436 385.473 442.945 383.389L373.517 88.3207C372.973 86.0067 372.498 83.9896 371.953 81.6756C322.216 126.074 245.726 163.52 187.983 183.602L234.337 380.606ZM522.602 428.186C546.895 422.47 559.32 402.185 553.671 378.18L474.681 42.4751C468.998 18.3205 448.832 5.70559 424.539 11.4215C400.544 17.0676 387.971 37.3858 393.655 61.5403L472.645 397.245C478.293 421.251 498.607 433.832 522.602 428.186ZM278.051 522.336C303.64 516.315 318.293 493.542 303.983 462.381L276.702 402.823C261.816 403.869 241.762 406.966 197.23 416.208C190.864 417.566 178.07 419.982 165.127 423.027L222.943 497.499C239.207 518.412 254.914 527.78 278.051 522.336Z" fill="#FF610B" fill-opacity="0.85" style="fill:#FF610B;fill:color(display-p3 1.0000 0.3788 0.0444);fill-opacity:0.85;"/>
</g>
<defs>
<clipPath id="clip0_2002_12">
<rect width="486" height="464" fill="white" style="fill:white;fill-opacity:1;" transform="translate(0 111.314) rotate(-13.2406)"/>
</clipPath>
</defs>
</svg>
